<?xml version="1.0" encoding="UTF-8" standalone="no"?><!-- Generator: Gravit.io --><svg xmlns="http://www.w3.org/2000/svg" xmlns:xlink="http://www.w3.org/1999/xlink" style="isolation:isolate" viewBox="0 0 512 512" width="512pt" height="512pt"><defs><clipPath id="_clipPath_UJFbyXkzBVCaW5ozRWzui3Pxg4kEx4Ml"><rect width="512" height="512"/></clipPath></defs><g clip-path="url(#_clipPath_UJFbyXkzBVCaW5ozRWzui3Pxg4kEx4Ml)"><g><g><path d=" M 142.349 453.022 L 142.242 453.022 L 28.51 255.995 L 28.612 255.82 L 254.545 255.82 L 255.072 256.729 L 142.349 453.022 L 142.349 453.022 Z " fill="rgb(26,35,126)"/><path d=" M 142.349 453.022 L 368.97 453.022 L 368.97 453.022 L 255.072 256.729 L 142.349 453.022 L 142.349 453.022 Z " fill="rgb(63,81,181)"/><path d=" M 255.072 256.729 L 254.545 255.82 L 255.594 255.82 L 255.072 256.729 L 255.072 256.729 Z " fill="rgb(195,207,217)"/><path d=" M 255.072 256.729 L 368.97 453.022 L 368.97 453.022 L 369.74 453.022 L 483.49 255.995 L 483.388 255.82 L 483.388 255.82 L 255.594 255.82 L 255.072 256.729 L 255.072 256.729 Z " fill="rgb(92,107,192)"/><path d=" M 254.545 255.82 L 28.612 255.82 L 141.287 60.632 L 254.545 255.82 L 254.545 255.82 Z " fill="rgb(92,107,192)"/><path d=" M 255.594 255.82 L 254.545 255.82 L 254.545 255.82 L 141.287 60.632 L 142.242 58.978 L 368.631 58.978 L 255.594 255.82 L 255.594 255.82 Z " fill="rgb(63,81,181)"/><path d=" M 255.594 255.82 L 483.388 255.82 L 483.388 255.82 L 369.74 58.978 L 368.631 58.978 L 255.594 255.82 L 255.594 255.82 Z " fill="rgb(26,35,126)"/></g><path d=" M 314.036 155.469 L 372.078 255.998 L 314.036 356.531 L 197.954 356.531 L 139.922 255.998 L 197.954 155.469 L 314.036 155.469 Z " fill-rule="evenodd" fill="rgb(63,81,181)"/></g></g></svg>